<svg width="41" height="39" viewBox="0 0 41 39" fill="none" xmlns="http://www.w3.org/2000/svg">
<g id="Component 5">
<path id="Vector" d="M2.20508 10.9075C3.49439 8.40979 5.31605 6.29875 7.61185 4.54342C10.7228 2.154 14.2913 0.715715 18.2923 0.27495C22.9921 -0.243144 27.409 0.584259 31.4932 2.85768C32.508 3.42217 33.4562 4.06399 34.3629 4.75994C34.5875 4.93006 34.5626 5.03058 34.3712 5.2007C32.5163 6.91737 30.6614 8.63404 28.8231 10.3662C28.6068 10.5672 28.4903 10.5518 28.2574 10.3894C22.8673 6.53073 15.0067 7.57465 10.989 12.6783C10.282 13.5753 9.70802 14.5418 9.30875 15.5935C9.27548 15.6863 9.20893 15.7714 9.15902 15.8641C8.08599 15.1063 7.00463 14.3485 5.93991 13.583C4.6922 12.6937 3.44448 11.8045 2.20508 10.9075Z" fill="#E94335"/>
<path id="Vector_2" d="M9.15856 23.1174C9.51624 23.852 9.81569 24.6175 10.2649 25.3057C12.1531 28.1823 14.8482 30.0304 18.4 30.6877C21.6025 31.2831 24.6802 30.881 27.5499 29.3886C27.6497 29.3422 27.7496 29.2958 27.8411 29.2494C27.891 29.2958 27.9326 29.35 27.9825 29.3886C30.1285 30.9352 32.2829 32.4817 34.429 34.0283C33.3976 34.9794 32.2247 35.7449 30.977 36.4099C27.3586 38.3277 23.4408 39.1009 19.315 38.8071C14.1744 38.4359 9.74082 36.5491 6.08085 33.1467C4.47545 31.6543 3.15287 29.9686 2.19629 28.0431C3.08633 27.409 3.97637 26.7827 4.86641 26.1486C6.29712 25.1356 7.72784 24.1304 9.15856 23.1174Z" fill="#34A853"/>
<path id="Vector_3" d="M34.438 34.0284C32.2919 32.4819 30.1375 30.9353 27.9914 29.3888C27.9415 29.3501 27.8916 29.296 27.85 29.2496C28.5903 28.716 29.3473 28.1979 29.9545 27.5175C30.9693 26.3885 31.6431 25.1126 31.9924 23.682C32.034 23.5042 32.0008 23.4423 31.8095 23.4501C31.7096 23.4578 31.6181 23.4501 31.5183 23.4501C28.1245 23.4501 24.7224 23.4423 21.3286 23.4578C20.9543 23.4578 20.8711 23.365 20.8795 23.0325C20.8961 20.79 20.8961 18.5475 20.8795 16.305C20.8795 16.0189 20.9626 15.9416 21.2704 15.9416C27.4924 15.9493 33.7143 15.9493 39.9446 15.9416C40.2107 15.9416 40.3189 16.0035 40.3854 16.2664C40.8928 18.3929 40.8596 20.5271 40.5518 22.6768C40.3022 24.3935 39.8531 26.056 39.1627 27.6644C38.1395 30.0383 36.634 32.1107 34.6542 33.8892C34.5794 33.9434 34.5045 33.982 34.438 34.0284Z" fill="#4285F3"/>
<path id="Vector_4" d="M9.15805 23.1177C7.72734 24.1306 6.29663 25.1359 4.86591 26.1489C3.97588 26.7752 3.08584 27.4093 2.19581 28.0434C1.5054 26.8526 1.05623 25.5921 0.69023 24.293C-0.00849011 21.7799 -0.116625 19.2281 0.266007 16.6686C0.565458 14.658 1.18932 12.7249 2.19581 10.9154C3.44352 11.8047 4.68292 12.7017 5.93063 13.5909C7.00366 14.3565 8.0767 15.1143 9.14973 15.8721C8.96673 16.6995 8.70887 17.5114 8.62569 18.362C8.47597 19.9086 8.63401 21.4165 9.10814 22.9011C9.14141 22.963 9.14973 23.0403 9.15805 23.1177Z" fill="#FABB06"/>
</g>
</svg>
