<svg width="40" height="40" viewBox="0 0 40 40" fill="none" xmlns="http://www.w3.org/2000/svg">
<rect y="0.181641" width="39.6355" height="39.6355" rx="3" fill="#37AEE2"/>
<path d="M14.6829 31.2008C13.8318 31.2008 13.9092 30.8994 13.6771 30.1458L11.2012 22.2338L30.1573 11.383" fill="#C8DAEA"/>
<path d="M14.6475 31.2007C15.1418 31.2007 15.4244 30.9169 15.7775 30.6331L18.9557 27.5818L15.0006 25.1693" fill="#A9C9DD"/>
<path d="M15.0607 25.0022L25.3341 32.5889C26.3995 33.2786 27.3127 32.8954 27.6171 31.516L31.8026 11.7447C32.1831 10.0588 31.1177 9.29243 29.9762 9.82887L5.54822 19.3314C3.95013 19.9444 3.95013 20.9407 5.24382 21.3238L11.5601 23.3163L26.019 14.0437C26.7039 13.6605 27.3127 13.8138 26.8561 14.3502" fill="#F6FBFE"/>
</svg>
