<svg width="40" height="42" viewBox="0 0 40 42" fill="none" xmlns="http://www.w3.org/2000/svg">
<g clip-path="url(#clip0_685_789)">
<path d="M39.9882 0.751434H0.37587C0.369457 0.751434 0.364258 0.756746 0.364258 0.763299V41.2368C0.364258 41.2433 0.369457 41.2486 0.37587 41.2486H39.9882C39.9946 41.2486 39.9998 41.2433 39.9998 41.2368V0.763299C39.9998 0.756746 39.9946 0.751434 39.9882 0.751434Z" fill="#7289DA"/>
<path d="M27.1495 31.7571L25.5238 29.7797C28.6978 28.9096 29.9364 26.695 29.9364 26.695C25.9109 30.5707 14.9182 30.7289 10.6605 26.695C10.6605 26.695 11.7443 28.7515 14.9956 29.7797L13.2151 31.7571C7.79621 31.678 5.70605 27.9605 5.70605 27.9605C5.70605 19.7345 9.26706 13.1695 9.26706 13.1695C12.9055 10.5594 16.2342 10.5594 16.2342 10.5594L16.4665 10.8757C11.9765 12.1413 10.0412 14.1978 10.0412 14.1978C15.3053 10.5594 26.1431 10.8757 30.4009 14.1978C30.4783 14.1187 27.8462 11.9831 23.7433 10.8757L24.1304 10.5594C24.1304 10.5594 27.4592 10.5594 31.0976 13.1695C31.0976 13.1695 34.6586 19.7345 34.6586 27.9605C34.6586 27.9605 32.5684 31.678 27.1495 31.7571Z" fill="white"/>
<path d="M15.5371 25.5876C16.9479 25.5876 18.0917 24.3482 18.0917 22.8193C18.0917 21.2903 16.9479 20.0509 15.5371 20.0509C14.1262 20.0509 12.9824 21.2903 12.9824 22.8193C12.9824 24.3482 14.1262 25.5876 15.5371 25.5876Z" fill="#7289DA"/>
<path d="M24.5175 25.5876C25.9284 25.5876 27.0722 24.3482 27.0722 22.8193C27.0722 21.2903 25.9284 20.0509 24.5175 20.0509C23.1066 20.0509 21.9629 21.2903 21.9629 22.8193C21.9629 24.3482 23.1066 25.5876 24.5175 25.5876Z" fill="#7289DA"/>
</g>
<defs>
<clipPath id="clip0_685_789">
<rect x="0.364258" y="0.751434" width="39.6355" height="40.4972" rx="4" fill="white"/>
</clipPath>
</defs>
</svg>
