<svg width="41" height="42" viewBox="0 0 41 42" fill="none" xmlns="http://www.w3.org/2000/svg">
<g id="facebook_icon_130940 4">
<g clip-path="url(#clip0_685_786)">
<path id="Vector" d="M40.0648 0.733948H0.111321C0.104853 0.733948 0.0996094 0.739264 0.0996094 0.745822V41.2542C0.0996094 41.2607 0.104853 41.266 0.111321 41.266H40.0648C40.0712 41.266 40.0765 41.2607 40.0765 41.2542V0.745822C40.0765 0.739264 40.0712 0.733948 40.0648 0.733948Z" fill="#1877F2"/>
<path id="Vector_2" d="M27.8648 26.8581L28.7549 21H23.2112V17.2001C23.2112 15.601 23.9842 14.0335 26.4672 14.0335H28.9891V9.04618C28.9891 9.04618 26.7014 8.65036 24.5152 8.65036C19.9475 8.65036 16.9648 11.4528 16.9648 16.5351V21H11.8896V26.8581H16.9648V41.266H23.2112V26.8581H27.8648Z" fill="white"/>
</g>
</g>
<defs>
<clipPath id="clip0_685_786">
<rect x="0.0996094" y="0.733948" width="39.9769" height="40.5321" rx="6" fill="white"/>
</clipPath>
</defs>
</svg>
